<svg id="Page-1" xmlns="http://www.w3.org/2000/svg" width="21" height="17" viewBox="0 0 21 17">
  <g id="bed">
    <path id="XMLID_874_" d="M19.975,8.527v-.4a2.077,2.077,0,0,0-.957-1.745V2.063A2.075,2.075,0,0,0,16.936,0H4.064A2.075,2.075,0,0,0,1.982,2.063V6.386a2.077,2.077,0,0,0-.957,1.745v.4A1.367,1.367,0,0,0,0,9.845v4.637a1.37,1.37,0,0,0,1.31,1.361v.549a.614.614,0,0,0,1.228,0v-.547H18.462v.547a.614.614,0,0,0,1.228,0v-.549A1.37,1.37,0,0,0,21,14.482V9.845a1.367,1.367,0,0,0-1.025-1.318ZM3.111,2.357a.841.841,0,0,1,.865-.812H17.024a.841.841,0,0,1,.865.812V6.182h-.83V5.153a1.353,1.353,0,0,0-1.393-1.306H12.317a1.353,1.353,0,0,0-1.393,1.306V6.182h-.85V5.153A1.353,1.353,0,0,0,8.683,3.846H5.334A1.353,1.353,0,0,0,3.941,5.153V6.182h-.83ZM15.556,4.82V6a.172.172,0,0,1-.158.183H11.824A.172.172,0,0,1,11.667,6V4.82a.172.172,0,0,1,.158-.183H15.4A.172.172,0,0,1,15.556,4.82Zm-6.222,0V6a.172.172,0,0,1-.158.183H5.6A.172.172,0,0,1,5.444,6V4.82A.172.172,0,0,1,5.6,4.636H9.176a.172.172,0,0,1,.158.183Zm-7,3.234a1,1,0,0,1,.865-1.1H17.8a1,1,0,0,1,.865,1.1V8.5H2.333Zm17.111,6.491a.143.143,0,0,1-.148.137H.926a.143.143,0,0,1-.148-.137V10.182a.143.143,0,0,1,.148-.137H19.3a.143.143,0,0,1,.148.137v4.363Z" fill="#26adcd"/>
  </g>
</svg>
