<svg xmlns="http://www.w3.org/2000/svg" width="66" height="57" viewBox="0 0 66 57">
  <g id="Page-1" transform="translate(-0.039)">
    <g id="iPhone-11-Copy" transform="translate(-276 -1256)">
      <g id="car" transform="translate(276 1256)">
        <path id="Path" d="M31.717,0,27.039,13c1.859-.07,3.706-.075,5.5-.075s3.638.005,5.5.075L33.36,0Z" fill="#34b0cd"/>
        <path id="Path-2" data-name="Path" d="M23.249,46v1.156a3.582,3.582,0,0,1-3.566,3.5H16.048a3.56,3.56,0,0,1-2.258-.841L11.039,57h44l-2.752-7.18a3.559,3.559,0,0,1-2.253.833H46.4a3.586,3.586,0,0,1-3.566-3.5V46H23.249Z" fill="#34b0cd"/>
        <path id="Path-3" data-name="Path" d="M28.916,0,22.039,13a6.8,6.8,0,0,1,.956-.194c1-.133,2-.224,3-.292L31.039,0Z" fill="#34b0cd"/>
        <path id="Path-4" data-name="Path" d="M10.048,36,.039,57h8.53l3.469-9.574a3.478,3.478,0,0,1-.068-.673v-2.7a5.1,5.1,0,0,1-1.923-3.887Z" fill="#34b0cd"/>
        <path id="Path-5" data-name="Path" d="M36.039,0l5.04,12.514c1,.068,2,.16,3.007.292a6.8,6.8,0,0,1,.953.194L38.162,0Z" fill="#34b0cd"/>
        <path id="Path-6" data-name="Path" d="M56.025,36v4.166a5.117,5.117,0,0,1-1.92,3.887v2.7a3.786,3.786,0,0,1-.067.691L57.505,57h8.533Z" fill="#34b0cd"/>
        <path id="Shape" d="M29,36.369h9.731a.88.88,0,0,1,.883.879v2.046a.881.881,0,0,1-.883.879H29a.879.879,0,0,1-.882-.879V37.249a.879.879,0,0,1,.881-.88Zm19.767-5.432c1.912.03,2.512.483,2.6,1.163.122.9.122,2.639-1.507,2.911a36.692,36.692,0,0,1-5.471.013c-1.384-.052-1.572-.9-.882-1.994,1.283-2.024,3.346-2.118,5.262-2.094Zm-30.45,0c1.911-.025,3.976.07,5.261,2.094.691,1.094.5,1.942-.886,1.994a36.661,36.661,0,0,1-5.47-.013C15.589,34.741,15.592,33,15.708,32.1c.089-.68.692-1.133,2.6-1.164Zm15.549-13.9c2.945,0,6.13.1,8.824.288a3.293,3.293,0,0,1,2.589,1.624,33.146,33.146,0,0,1,1.947,3.593,2,2,0,0,1-1.986,2.886H33.865v-.009l0-.009-.005.009v.009H22.487A2,2,0,0,1,20.5,22.543a32.6,32.6,0,0,1,1.945-3.593,3.3,3.3,0,0,1,2.59-1.624c2.693-.185,5.878-.283,8.824-.288ZM33.54,15a75.861,75.861,0,0,0-10.257.443,4.469,4.469,0,0,0-3.267,2.163L17.831,21.13H14.537a1.331,1.331,0,0,0-1.364,1.77c.292,1.078.62,1.611,2.22,1.982l-1.434,2.49a6.315,6.315,0,0,0-.922,3.028v9.829a3.107,3.107,0,0,0,1.973,2.822v3.661A1.286,1.286,0,0,0,16.31,48H20a1.29,1.29,0,0,0,1.3-1.288v-3.48h24.48v3.48A1.287,1.287,0,0,0,47.079,48h3.679a1.291,1.291,0,0,0,1.308-1.288V43.051a3.112,3.112,0,0,0,1.973-2.822V30.4a6.386,6.386,0,0,0-.922-3.028l-1.434-2.49c1.6-.371,1.933-.9,2.22-1.982a1.33,1.33,0,0,0-1.364-1.77h-3.3l-2.181-3.524a4.467,4.467,0,0,0-3.267-2.163A75.7,75.7,0,0,0,33.54,15Z" fill="#fff"/>
      </g>
    </g>
  </g>
</svg>
