<svg id="Group_2" data-name="Group 2" xmlns="http://www.w3.org/2000/svg" xmlns:xlink="http://www.w3.org/1999/xlink" width="178.566" height="49" viewBox="0 0 178.566 49">
  <defs>
    <clipPath id="clip-path">
      <rect id="Rectangle_1" data-name="Rectangle 1" width="178.566" height="49" fill="none"/>
    </clipPath>
  </defs>
  <g id="Group_1" data-name="Group 1" clip-path="url(#clip-path)">
    <path id="Path_1" data-name="Path 1" d="M39.326,39.829c-7.911-4.295-13.578-2.55-18.56-.851C15.345,40.828,9.091,43.209,0,39.5c4.062,6.9,12.779,8.834,18.89,7.949,5.78-.838,13.682-6.082,26.679-3.256a26.812,26.812,0,0,0-6.243-4.362" transform="translate(0 -25.975)" fill="#00459d"/>
    <path id="Path_2" data-name="Path 2" d="M59.562,78.725c12.207-5.36,20.4-2.459,27.887-.108,8.147,2.559,17.86,5.364,31.836.8-6.485,8.853-19.811,11.123-29.046,9.8C81.5,87.956,69.6,80.891,49.883,84.218a37.182,37.182,0,0,1,9.679-5.494" transform="translate(-34.884 -52.932)" fill="#00adef"/>
    <path id="Path_3" data-name="Path 3" d="M87.628,130.091c8.058-4.428,13.679-2.386,18.8-.75,5.581,1.781,12.011,2.876,21.99.382-4.081,6.987-13.483,8.532-19.757,7.73-5.933-.76-13.728-5.209-27.384-2.891a31.313,31.313,0,0,1,6.348-4.471" transform="translate(-56.841 -89.105)" fill="#00459d"/>
    <path id="Path_4" data-name="Path 4" d="M185.436,23.691a12.388,12.388,0,0,1-6.537-2.059l-.434-3.142s3.468,3.793,7.044,3.973c1.7.072,3.829-.9,4.189-2.926.4-2.312-.685-3.359-4.227-5.165-3.467-1.807-6.826-3.287-6.319-6.538.289-1.805,2.745-4.082,6.61-4.118a12.282,12.282,0,0,1,6.032,1.518l.289,2.563c-2.926-2.782-5.491-3.034-6.646-2.818-3.071.615-4.877,3.54,1.227,6.466,3.683,1.77,6.539,3.215,6.573,6.538.037,5.057-6.392,5.816-7.8,5.708" transform="translate(-124.804 -2.596)" fill="#034ea2"/>
    <path id="Path_5" data-name="Path 5" d="M241.164,36.662c-5.2-.036-8.165-3.5-8.165-7.116a7.812,7.812,0,0,1,8.129-7.442c5.274.037,8.2,3.577,8.2,7.188,0,3.721-3.25,7.37-8.164,7.37m.037-13.294c-5.382,0-5.13,6.033-4.734,7.551.327,1.373,1.915,4.515,4.661,4.515,5.888,0,5.092-6.033,4.7-7.586-.363-1.372-1.88-4.48-4.624-4.48" transform="translate(-162.941 -15.458)" fill="#034ea2"/>
    <path id="Path_6" data-name="Path 6" d="M304.613,37.1a4.819,4.819,0,0,1-.362-2.6,7.2,7.2,0,0,1-5.092,2.818,6.116,6.116,0,0,1-4.011-1.12c-.9-.83-1.191-1.265-1.191-3.323V26.3a7.173,7.173,0,0,0-.578-3.1h4.227a5.48,5.48,0,0,0-.578,3.1v5.131c0,3.321.253,4.478,2.527,4.442,2.384-.073,4.7-2.817,4.7-5.2V26.3a7.088,7.088,0,0,0-.577-3.1H307.9a5.532,5.532,0,0,0-.614,3.1v7.116a6.684,6.684,0,0,0,.975,3.685Z" transform="translate(-205.167 -16.218)" fill="#034ea2"/>
    <path id="Path_7" data-name="Path 7" d="M359.827,26.507a7,7,0,0,1-4.263,1.265c-1.733-.036-4.586-.8-4.586-4.154V14.948l-1.909,0,0-1.33,1.868,0a18.077,18.077,0,0,0-.32-3.312l3.426-.807v4.118l5.569,0v1.33l-5.569,0v8.994a2.422,2.422,0,0,0,2.566,2.673c1.409,0,2.384-.83,3.829-2.6Z" transform="translate(-244.112 -6.639)" fill="#034ea2"/>
    <path id="Path_8" data-name="Path 8" d="M403.311,20.843a5.409,5.409,0,0,0,.577-3.071V12.643c0-3.323-.252-4.515-2.53-4.479-2.382.072-4.694,2.817-4.694,5.2v4.407a6.976,6.976,0,0,0,.578,3.071h-4.227a5.388,5.388,0,0,0,.578-3.071V3.215A6.73,6.73,0,0,0,393.015,0h4.262a6.228,6.228,0,0,0-.613,3.215s.035,5.021,0,6.356a7.128,7.128,0,0,1,5.093-2.853,6.015,6.015,0,0,1,3.973,1.121c.94.83,1.193,1.3,1.193,3.359v6.574a7.234,7.234,0,0,0,.615,3.071Z" transform="translate(-274.844)" fill="#034ea2"/>
    <path id="Path_9" data-name="Path 9" d="M452.076,28.023c-.686,6.789,5.563,8.813,8.957,5.743l.758.867c-5.164,4.369-13.04.939-13.04-5.165,0-8.453,13.583-11.054,13.944-1.445Zm.325-1.373h7.005c-.323-5.2-5.813-3.973-7.005,0" transform="translate(-313.821 -15.307)" fill="#034ea2"/>
    <path id="Path_10" data-name="Path 10" d="M511,24.251c-3.542-2.2-6.07,2.24-6.07,4.408v4.407a6.212,6.212,0,0,0,.578,3.071h-4.225a5.4,5.4,0,0,0,.578-3.071V25.949a6.611,6.611,0,0,0-.978-3.683h3.686a5.07,5.07,0,0,1,.362,2.6c1.337-1.985,3.936-3.539,7.73-2.816Z" transform="translate(-350.28 -15.293)" fill="#034ea2"/>
    <path id="Path_11" data-name="Path 11" d="M554.953,36.439a5.388,5.388,0,0,0,.578-3.071V28.239c0-3.323-.253-4.515-2.528-4.479-2.384.072-4.695,2.817-4.695,5.2v4.407a6.953,6.953,0,0,0,.579,3.071h-4.228a5.4,5.4,0,0,0,.579-3.071V26.252a6.64,6.64,0,0,0-.975-3.683h3.684a5.115,5.115,0,0,1,.362,2.6,7.126,7.126,0,0,1,5.093-2.853,6.018,6.018,0,0,1,3.972,1.121c.939.83,1.191,1.3,1.191,3.359v6.574a7.222,7.222,0,0,0,.617,3.071Z" transform="translate(-380.614 -15.596)" fill="#034ea2"/>
    <path id="Path_12" data-name="Path 12" d="M326.812,99.832l-7.081,16.832h-.793l-6.285-14.774-6.214,14.774h-.759L298.673,100.3a9.481,9.481,0,0,0-2.347-3.359H300.8l6.172,14.452,6.112-14.457,1.009.005,6.177,14.458,6.1-14.463,2.132.005a9.681,9.681,0,0,0-1.7,2.89" transform="translate(-207.227 -67.79)" fill="#034ea2"/>
    <path id="Path_13" data-name="Path 13" d="M411.159,128.524a5.056,5.056,0,0,1-.58-2.563c-1.7,2.2-3.647,2.962-5.2,2.853-3.214-.217-5.022-2.421-5.022-4.477,0-2.168,1.516-3.65,4.8-4.3,2.167-.434,5.237-.145,5.382-2.277.106-1.986-4.7-3.864-9.175.364l.289-2.35c3.069-2.131,10.259-2.239,11.7,1.736a8.764,8.764,0,0,1,.255,2.745v4.515a6.167,6.167,0,0,0,1.3,3.755Zm-.615-8.487c-1.7.9-5.165.795-6.358,2.565a2.791,2.791,0,0,0,2.2,4.552c1.88,0,4.155-1.7,4.155-5.238Z" transform="translate(-279.979 -79.94)" fill="#034ea2"/>
    <path id="Path_14" data-name="Path 14" d="M495.458,120.165c-.687,6.794,5.564,8.816,8.961,5.746l.757.865c-5.167,4.373-13.04.94-13.04-5.164,0-8.452,13.583-11.054,13.942-1.447Zm.327-1.37h7.006c-.322-5.2-5.815-3.973-7.006,0" transform="translate(-344.161 -79.745)" fill="#034ea2"/>
    <path id="Path_15" data-name="Path 15" d="M554.388,116.4c-3.539-2.2-6.066,2.239-6.066,4.406v4.407a6.21,6.21,0,0,0,.576,3.07h-4.228a5.383,5.383,0,0,0,.578-3.07V118.1a6.633,6.633,0,0,0-.973-3.685h3.685a5.125,5.125,0,0,1,.363,2.6c1.334-1.985,3.937-3.538,7.728-2.817Z" transform="translate(-380.623 -79.733)" fill="#034ea2"/>
    <path id="Path_16" data-name="Path 16" d="M462.2,118.718a7,7,0,0,1-4.265,1.265c-1.732-.038-4.586-.8-4.586-4.154v-8.671l-1.908,0,0-1.329,1.866-.005a17.825,17.825,0,0,0-.321-3.311l3.43-.8v4.115l5.568.005v1.329l-5.568,0v8.995a2.418,2.418,0,0,0,2.563,2.673c1.409,0,2.384-.83,3.829-2.6Z" transform="translate(-315.703 -71.126)" fill="#034ea2"/>
  </g>
</svg>
