<svg id="noun-check-5159251_copy_7" data-name="noun-check-5159251 copy 7" xmlns="http://www.w3.org/2000/svg" width="19" height="19" viewBox="0 0 19 19">
  <path id="Path" d="M17.919,6.835a.7.7,0,0,0-.524.838A8.107,8.107,0,1,1,16.12,4.828a.7.7,0,1,0,1.141-.806,9.453,9.453,0,1,0,1.5,3.338.7.7,0,0,0-.838-.524Z" fill="#aaa"/>
  <path id="Path-2" data-name="Path" d="M8.925.132,3.249,4.32,1.187,1.942A.657.657,0,0,0,.221,1.9.756.756,0,0,0,.18,2.922L2.647,5.766a.653.653,0,0,0,.893.1l6.166-4.55A.753.753,0,0,0,9.877.31.662.662,0,0,0,8.925.129Z" transform="translate(5 7)" fill="#26adcd"/>
</svg>
