<svg xmlns="http://www.w3.org/2000/svg" width="58" height="58" viewBox="0 0 58 58">
  <g id="Park" transform="translate(-0.074)">
    <path id="Path" d="M48.321,4.573A4.631,4.631,0,0,1,44.764,2.79a8.112,8.112,0,0,0-12.241,0,4.418,4.418,0,0,1-7.091,0,8.1,8.1,0,0,0-12.229,0A4.616,4.616,0,0,1,9.66,4.57,4.617,4.617,0,0,1,6.115,2.79,8.175,8.175,0,0,0,0,0V3.43A4.615,4.615,0,0,1,3.547,5.212,8.175,8.175,0,0,0,9.662,8a8.177,8.177,0,0,0,6.115-2.79A4.61,4.61,0,0,1,19.32,3.43a4.617,4.617,0,0,1,3.544,1.78A7.989,7.989,0,0,0,28.981,8,7.989,7.989,0,0,0,35.1,5.21a4.428,4.428,0,0,1,7.1,0A8.006,8.006,0,0,0,48.322,8,8.008,8.008,0,0,0,54.446,5.21,4.626,4.626,0,0,1,58,3.427V0a8.194,8.194,0,0,0-6.121,2.788,4.631,4.631,0,0,1-3.559,1.785Z" transform="translate(0.074 39)" fill="#fff"/>
    <path id="Path-2" data-name="Path" d="M48.321,4.572A4.631,4.631,0,0,1,44.764,2.79a8.112,8.112,0,0,0-12.241,0,4.418,4.418,0,0,1-7.091,0,8.1,8.1,0,0,0-12.229,0A4.618,4.618,0,0,1,9.66,4.57,4.619,4.619,0,0,1,6.115,2.79,8.175,8.175,0,0,0,0,0V3.43A4.615,4.615,0,0,1,3.547,5.212,8.175,8.175,0,0,0,9.662,8a8.176,8.176,0,0,0,6.115-2.79A4.61,4.61,0,0,1,19.32,3.43a4.617,4.617,0,0,1,3.544,1.78A7.988,7.988,0,0,0,28.981,8,7.989,7.989,0,0,0,35.1,5.21a4.428,4.428,0,0,1,7.1,0A8.006,8.006,0,0,0,48.322,8,8.007,8.007,0,0,0,54.446,5.21,4.625,4.625,0,0,1,58,3.428V0a8.192,8.192,0,0,0-6.121,2.788,4.631,4.631,0,0,1-3.559,1.785Z" transform="translate(0.074 50)" fill="#fff"/>
    <path id="Path-3" data-name="Path" d="M49.153,30.361V26.454a7.442,7.442,0,0,0,4.624-7.206c0-4.193-2.9-9.642-6.463-9.642s-6.462,5.451-6.462,9.644a7.431,7.431,0,0,0,4.673,7.224v3.885h-14.3V24.337A9.446,9.446,0,0,0,38.979,14.2c0-6.5-4.2-14.2-9.387-14.2s-9.387,7.7-9.387,14.2h0A9.486,9.486,0,0,0,27.6,24.283v6.07H13.516v-3.9a7.444,7.444,0,0,0,4.624-7.207c0-4.193-2.9-9.642-6.463-9.642s-6.46,5.449-6.46,9.642A7.431,7.431,0,0,0,9.89,26.473v3.885H0V34H58V30.358Z" transform="translate(0.074)" fill="#26adcd"/>
  </g>
</svg>
