<svg id="size" xmlns="http://www.w3.org/2000/svg" width="19" height="17" viewBox="0 0 19 17">
  <path id="Path" d="M7.169,15.744c0-.86-.05-1.673.025-2.471a1.022,1.022,0,0,1,.563-.773c.452-.1.608.312.6.742v2.523H14.89v-3H12.75c-.457,0-1.065.123-1.075-.583s.638-.614,1.11-.624h2.1a1.176,1.176,0,0,0,.055-.333,2.912,2.912,0,0,1,1.4-3.07A18.8,18.8,0,0,0,18.01,6.616c.322-.3.708-.425.944,0a.981.981,0,0,1-.156.89c-.693.721-1.507,1.351-2.18,2.047a1.672,1.672,0,0,0-.457,1.023c-.045,1.822-.035,3.648,0,5.47,0,.681-.251.952-.924.952H.99c-.749.031-.99-.251-.99-.967V.988C0,.113.126,0,1,0H15.117c.879,0,1,.123,1,1.023V4.139c0,.461.05,1.023-.583,1.023s-.613-.512-.613-.993v-2.9H8.365v2.4c0,.44-.045.87-.573.885s-.628-.461-.623-.921V1.259H1.261V8.765H7.073c.04-.041.075-.067.07-.077-.3-1.453.543-2.287,1.547-3.07.553-.43,1-.982,1.572-1.392a.954.954,0,0,1,.889-.067c.387.281.211.66-.105.952-.7.645-1.382,1.315-2.11,1.924a1.3,1.3,0,0,0-.573,1.289,4.21,4.21,0,0,1,0,.681c0,.9-.126,1.023-1,1.023H1.241v5.715Z" fill="#00b2d0"/>
</svg>
