<svg xmlns="http://www.w3.org/2000/svg" width="63" height="64" viewBox="0 0 63 64">
  <g id="wetland" transform="translate(-0.5)">
    <path id="Path" d="M.018,2.928S-.253,1.7,1.31.564,5.817.358,5.817.358C5.927,2.3,5.978,3.9,6,5H5L4.745,3.282c-.015-.04-.205-1.946-1.732-1.931A3.711,3.711,0,0,0,.018,2.928Z" transform="translate(4.5 42)" fill="#26adcd"/>
    <path id="Path-2" data-name="Path" d="M6.856,14.428a2.682,2.682,0,0,1-2.379-1.443L.309,5.007A2.7,2.7,0,0,1,.922,1.715C.79,1.5.727,1.379.72,1.372a.9.9,0,0,1,.3-1.24.883.883,0,0,1,1.224.3c.007.014.132.224.348.609a.4.4,0,0,1,.09-.007A2.7,2.7,0,0,1,5.068,2.478l4.16,7.985A2.707,2.707,0,0,1,8.7,13.693a70.7,70.7,0,0,1,2.6,7.719C13.541,29.67,13.937,39.6,14,43H12.212c-.077-3.362-.487-13.183-2.63-21.119a70.929,70.929,0,0,0-2.519-7.46c-.069.007-.138.007-.208.007Z" transform="translate(0.5 4)" fill="#26adcd"/>
    <path id="Path-3" data-name="Path" d="M1.785,47H0c.056-3.977.417-16.74,2.716-24.524.792-2.691,1.668-5.34,2.536-7.826a2.737,2.737,0,0,1-.785-1.928,2.876,2.876,0,0,1,.167-.953L7.81,3.256a2.694,2.694,0,0,1,2.578-1.766c.264-.607.41-.946.424-.961A.876.876,0,0,1,11.992.085a.905.905,0,0,1,.445,1.2c-.007.014-.146.325-.382.869A2.775,2.775,0,0,1,13,4.238a2.7,2.7,0,0,1-.167.953L9.665,13.7a2.693,2.693,0,0,1-2.793,1.745C6.039,17.842,5.2,20.406,4.434,23c-2.21,7.445-2.578,20.074-2.648,24Z" transform="translate(15.5)" fill="#26adcd"/>
    <path id="Path-4" data-name="Path" d="M4.376.579C6.073,1.436,6.952,3.943,7,4.1c-.164-.13-3.088-2.432-4.573-1.72C1.2,4.574.934,8.076.886,10H0A72.551,72.551,0,0,1,.94.086,5.537,5.537,0,0,1,4.376.579Z" transform="translate(23.5 37)" fill="#26adcd"/>
    <path id="Path-5" data-name="Path" d="M11.2,3.093c2.723,2.6,2.752,3.457,2.8,3.562A18.343,18.343,0,0,0,8.4,3.093a7.679,7.679,0,0,0-4.582.222A69.375,69.375,0,0,0,1.866,18H0A131.568,131.568,0,0,1,1.307,1.142c.036-.271.08-.528.131-.8A9.858,9.858,0,0,1,11.2,3.093Z" transform="translate(19.5 29)" fill="#26adcd"/>
    <path id="Path-6" data-name="Path" d="M59,.006v3.7h-.086a8.38,8.38,0,0,0-4.562,1.5,4.152,4.152,0,0,1-2.048.788C52.174,6,52.038,6,51.9,6s-.286,0-.415-.007a4.183,4.183,0,0,1-2.048-.788,8.327,8.327,0,0,0-4.548-1.5c-.129-.006-.265-.006-.408-.006s-.279,0-.408.006a8.367,8.367,0,0,0-4.554,1.5,4.133,4.133,0,0,1-2.048.788C37.336,6,37.2,6,37.057,6s-.279,0-.394-.007a4.1,4.1,0,0,1-2.048-.788,8.4,8.4,0,0,0-4.562-1.5c-.136-.006-.265-.006-.415-.006s-.265,0-.395.006a8.424,8.424,0,0,0-4.562,1.5,4.1,4.1,0,0,1-2.048.788C22.518,6,22.375,6,22.239,6s-.279,0-.408-.007a4.129,4.129,0,0,1-2.048-.788,8.377,8.377,0,0,0-4.555-1.5C15.1,3.7,14.954,3.7,14.819,3.7s-.279,0-.408.006a8.4,8.4,0,0,0-4.555,1.5,4.075,4.075,0,0,1-2.048.788C7.678,6,7.549,6,7.4,6S7.119,6,7,5.993a4.1,4.1,0,0,1-2.048-.788A8.378,8.378,0,0,0,.4,3.708C.272,3.7.136,3.7,0,3.7V0H29.638a8.454,8.454,0,0,1,4.977,1.5,3.861,3.861,0,0,0,2.443.8,3.89,3.89,0,0,0,2.458-.8,8.966,8.966,0,0,1,9.92,0,3.937,3.937,0,0,0,2.464.8,3.9,3.9,0,0,0,2.457-.8A8.363,8.363,0,0,1,59,.006Z" transform="translate(4.5 48)" fill="#26adcd"/>
    <path id="Path-7" data-name="Path" d="M59,.006V3.714a3.931,3.931,0,0,0-2.145.79A8.409,8.409,0,0,1,51.893,6a8.417,8.417,0,0,1-4.96-1.5,4.149,4.149,0,0,0-4.907,0A8.453,8.453,0,0,1,37.058,6,8.48,8.48,0,0,1,32.1,4.5a4.138,4.138,0,0,0-4.9,0A8.486,8.486,0,0,1,22.237,6a8.511,8.511,0,0,1-4.975-1.5,3.851,3.851,0,0,0-2.441-.8,3.855,3.855,0,0,0-2.443.8A8.524,8.524,0,0,1,7.4,6a8.482,8.482,0,0,1-4.96-1.5A3.866,3.866,0,0,0,0,3.7V0C.144,0,.274,0,.4.006A3.993,3.993,0,0,1,2.443.8,8.429,8.429,0,0,0,7,2.284c.136.013.266.013.4.013s.281,0,.41-.013A8.481,8.481,0,0,0,12.379.8a3.958,3.958,0,0,1,2.033-.79C14.541,0,14.685,0,14.821,0s.281,0,.409.006A3.971,3.971,0,0,1,17.263.8a8.482,8.482,0,0,0,4.566,1.489c.129.013.266.013.409.013s.266,0,.395-.013A8.455,8.455,0,0,0,27.2.8a4.008,4.008,0,0,1,2.047-.79C29.36,0,29.5,0,29.642,0s.279,0,.409.006A4.021,4.021,0,0,1,32.1.8a8.449,8.449,0,0,0,4.566,1.489,3.937,3.937,0,0,0,.394.013c.144,0,.281,0,.41-.013A8.407,8.407,0,0,0,42.027.8a4.009,4.009,0,0,1,2.04-.79C44.2,0,44.325,0,44.476,0s.281,0,.41.006A4.064,4.064,0,0,1,46.933.8a8.372,8.372,0,0,0,4.55,1.489c.129.013.274.013.41.013s.281,0,.409-.013A8.378,8.378,0,0,0,56.854.8a4.076,4.076,0,0,1,2.062-.79Z" transform="translate(4.5 58)" fill="#fff"/>
  </g>
</svg>
